#!OML:ASF E:\I on waltz\AllaLogoMonkeySwing\Project 1\Capture day 1\Session 1\Subject1.ASF
:FULLY-SPECIFIED
:DEGREES
284
root 14.6328 17.7038 20.7706 1.21163 53.0663 -0.418584
lowerback 7.08778 3.74534 -0.554399
upperback -0.611034 4.94888 0.063674
thorax -4.65294 2.46502 -0.169618
lowerneck -6.19649 12.2773 8.26761
upperneck 12.0779 17.552 -11.424
head 6.43231 8.2887 -3.38465
rclavicle -6.59406e-014 3.23025e-015
rhumerus -35.8986 -30.3277 -73.7135
rradius 19.3303
rwrist 13.4904
rhand -9.23253 -38.0313
rfingers 7.12502
rthumb 16.7226 -67.331
lclavicle -6.59406e-014 3.23025e-015
lhumerus -41.398 19.0459 79.3643
lradius 38.1939
lwrist -2.01502
lhand -11.3678 -14.2538
lfingers 7.12502
lthumb 14.6662 15.2075
rfemur 1.93427 -6.55199 21.9362
rtibia 14.1966
rfoot -14.9864 -15.9643
rtoes 18.3672
lfemur 0.950187 -0.351321 -17.1408
ltibia 16.4092
lfoot -22.7618 17.6314
ltoes -42.8466
285
root 14.6393 17.7006 20.7729 1.24379 53.1858 -0.434269
lowerback 7.04467 3.77735 -0.503595
upperback -0.60931 4.99236 -0.0189913
thorax -4.61528 2.4845 -0.284279
lowerneck -6.15216 12.2577 8.40296
upperneck 12.0358 17.54 -11.6046
head 6.4395 8.28076 -3.46362
rclavicle 1.00433e-014 -2.6339e-015
rhumerus -35.7646 -29.9242 -74.0224
rradius 19.2325
rwrist 13.2881
rhand -9.2931 -37.9764
rfingers 7.12502
rthumb 16.6643 -67.2811
lclavicle 1.00433e-014 -2.6339e-015
lhumerus -41.4218 18.7485 79.5602
lradius 38.4906
lwrist -1.87704
lhand -11.5528 -14.1192
lfingers 7.12502
lthumb 14.4879 15.355
rfemur 1.90754 -6.66021 21.9381
rtibia 14.2062
rfoot -14.9922 -16.0082
rtoes 18.2281
lfemur 0.898503 -0.371903 -17.1311
ltibia 16.4199
lfoot -22.8056 17.6507
ltoes -42.9346
286
root 14.6443 17.6924 20.7671 1.57443 53.1901 -0.271858
lowerback 6.90848 3.86051 -0.478092
upperback -0.665497 5.09923 -0.174765
thorax -4.58095 2.53529 -0.462642
lowerneck -6.09376 12.2208 8.66709
upperneck 12.0294 17.5129 -11.8813
head 6.47451 8.26484 -3.59212
rclavicle -1.48409e-015 -1.66793e-015
rhumerus -35.6731 -29.5942 -74.3075
rradius 19.2856
rwrist 13.0406
rhand -9.16841 -37.8342
rfingers 7.12502
rthumb 16.7843 -67.1287
lclavicle -1.48409e-015 -1.66793e-015
lhumerus -41.4156 18.5328 79.6763
lradius 38.642
lwrist -1.8274
lhand -11.6842 -14.3715
lfingers 7.12502
lthumb 14.3613 15.1118
rfemur 1.606 -6.69493 21.8101
rtibia 14.3433
rfoot -14.9937 -16.0201
rtoes 18.4631
lfemur 0.629151 -0.46095 -17.3185
ltibia 16.4904
lfoot -22.6761 17.5917
ltoes -42.9811
287
root 14.6472 17.6925 20.773 1.47996 53.3152 -0.395639
lowerback 6.92141 3.88302 -0.48103
upperback -0.666563 5.12745 -0.207147
thorax -4.58661 2.54889 -0.498383
lowerneck -5.99321 12.1829 8.83963
upperneck 11.9623 17.482 -12.1159
head 6.47045 8.24957 -3.69963
rclavicle 3.58123e-015 7.1314e-015
rhumerus -35.5633 -29.278 -74.5701
rradius 19.4036
rwrist 12.7246
rhand -9.04555 -37.753
rfingers 7.12502
rthumb 16.9026 -67.0374
lclavicle 3.58123e-015 7.1314e-015
lhumerus -41.4264 18.5292 79.7098
lradius 38.6998
lwrist -1.85726
lhand -11.8079 -14.7304
lfingers 7.12502
lthumb 14.2421 14.7612
rfemur 1.64696 -6.67131 21.9324
rtibia 14.2973
rfoot -14.9857 -16.1537
rtoes 18.8148
lfemur 0.604854 -0.511351 -17.2153
ltibia 16.5214
lfoot -22.7065 17.6373
ltoes -42.8122
288
root 14.6513 17.6931 20.7779 1.30242 53.5241 -0.641642
lowerback 6.91186 3.86056 -0.387773
upperback -0.672955 5.10546 -0.206465
thorax -4.57974 2.53576 -0.54627
lowerneck -5.92347 12.1666 8.90317
upperneck 11.8945 17.4727 -12.2498
head 6.45447 8.24495 -3.75641
rclavicle -3.85145e-014 6.70898e-015
rhumerus -35.4207 -28.9956 -74.7974
rradius 19.5275
rwrist 12.5152
rhand -8.97461 -37.8284
rfingers 7.12502
rthumb 16.9709 -67.107
lclavicle -3.85145e-014 6.70898e-015
lhumerus -41.4505 18.5369 79.7318
lradius 38.7942
lwrist -1.812
lhand -11.8563 -14.8672
lfingers 7.12502
lthumb 14.1955 14.6277
rfemur 1.67038 -6.81814 22.1116
rtibia 14.2679
rfoot -14.9695 -16.2136
rtoes 18.7516
lfemur 0.530046 -0.523078 -17.0235
ltibia 16.5798
lfoot -22.8269 17.7272
ltoes -42.663
289
root 14.6566 17.6928 20.7805 1.32539 53.7532 -0.644907
lowerback 6.88295 3.83113 -0.410238
upperback -0.668014 5.06315 -0.237401
thorax -4.5575 2.51519 -0.558724
lowerneck -5.88691 12.1811 8.78902
upperneck 11.8311 17.4855 -12.1726
head 6.4121 8.25426 -3.71866
rclavicle -1.08276e-014 -5.26779e-015
rhumerus -35.2101 -28.6146 -75.0568
rradius 19.6947
rwrist 12.1887
rhand -9.03833 -37.9635
rfingers 7.12502
rthumb 16.9095 -67.2474
lclavicle -1.08276e-014 -5.26779e-015
lhumerus -41.4454 18.5193 79.7751
lradius 38.8919
lwrist -1.75365
lhand -11.8627 -14.755
lfingers 7.12502
lthumb 14.1893 14.7404
rfemur 1.67598 -7.03316 22.0938
rtibia 14.2753
rfoot -14.9777 -16.2691
rtoes 18.4841
lfemur 0.467622 -0.569077 -17.0273
ltibia 16.6124
lfoot -23.0033 17.8184
ltoes -42.6271
290
root 14.661 17.6922 20.7823 1.37543 53.9256 -0.595528
lowerback 6.88546 3.81981 -0.500358
upperback -0.647561 5.03979 -0.25419
thorax -4.54395 2.50572 -0.523022
lowerneck -5.89104 12.2159 8.96673
upperneck 11.8759 17.5793 -12.4891
head 6.4836 8.28757 -3.82757
rclavicle 8.94376e-014 7.65321e-015
rhumerus -34.9807 -28.3349 -75.2457
rradius 19.8711
rwrist 11.9399
rhand -9.16253 -37.8781
rfingers 7.12502
rthumb 16.79 -67.1721
lclavicle 8.94376e-014 7.65321e-015
lhumerus -41.3755 18.592 79.8364
lradius 38.8536
lwrist -1.73224
lhand -12.043 -14.7084
lfingers 7.12502
lthumb 14.0156 14.799
rfemur 1.68855 -7.13417 22.0489
rtibia 14.2729
rfoot -15.0003 -16.3317
rtoes 18.4734
lfemur 0.452053 -0.615267 -17.0597
ltibia 16.6029
lfoot -23.1372 17.8752
ltoes -42.7089
291
root 14.6647 17.6912 20.7843 1.28005 54.0874 -0.719735
lowerback 6.90811 3.81799 -0.489243
upperback -0.631018 5.03876 -0.240428
thorax -4.53976 2.50508 -0.515811
lowerneck -5.89572 12.224 9.01819
upperneck 11.8723 17.6149 -12.6529
head 6.50777 8.29767 -3.88025
rclavicle -1.53499e-014 -7.05686e-015
rhumerus -34.8032 -28.2543 -75.3162
rradius 20.075
rwrist 11.9056
rhand -8.93211 -37.678
rfingers 7.12502
rthumb 17.0118 -66.9531
lclavicle -1.53499e-014 -7.05686e-015
lhumerus -41.3282 18.6916 79.8646
lradius 38.7911
lwrist -1.74813
lhand -12.2121 -14.7865
lfingers 7.12502
lthumb 13.8526 14.7322
rfemur 1.70963 -7.17533 22.1373
rtibia 14.2465
rfoot -15.0071 -16.4304
rtoes 18.6595
lfemur 0.45114 -0.7193 -16.974
ltibia 16.571
lfoot -23.1129 17.8778
ltoes -42.7608
292
root 14.669 17.6907 20.7866 1.26883 54.278 -0.800687
lowerback 6.8639 3.81262 -0.469211
upperback -0.63016 5.03275 -0.259602
thorax -4.5105 2.50164 -0.542583
lowerneck -5.93772 12.2125 8.8661
upperneck 11.8888 17.5941 -12.5349
head 6.49286 8.28604 -3.82227
rclavicle -6.62823e-015 -5.76476e-015
rhumerus -34.5954 -28.0366 -75.493
rradius 20.3354
rwrist 11.6531
rhand -8.34623 -37.7272
rfingers 7.12502
rthumb 17.5757 -66.9527
lclavicle -6.62823e-015 -5.76476e-015
lhumerus -41.3383 18.7866 79.8098
lradius 38.8005
lwrist -1.7929
lhand -12.1821 -14.7342
lfingers 7.12502
lthumb 13.8816 14.7825
rfemur 1.68315 -7.2207 22.1997
rtibia 14.2197
rfoot -15.0046 -16.5697
rtoes 18.7208
lfemur 0.388239 -0.850488 -16.9374
ltibia 16.5633
lfoot -23.1105 17.854
ltoes -42.7821
